<?xml version="1.0" standalone="no"?>
<!DOCTYPE svg PUBLIC "-//W3C//DTD SVG 20010904//EN"
 "http://www.w3.org/TR/2001/REC-SVG-20010904/DTD/svg10.dtd">
<svg version="1.0" xmlns="http://www.w3.org/2000/svg"
 width="180.000000pt" height="180.000000pt" viewBox="0 0 180.000000 180.000000"
 preserveAspectRatio="xMidYMid meet">
<metadata>
Created by potrace 1.14, written by Peter Selinger 2001-2017
</metadata>
<g transform="translate(0.000000,180.000000) scale(0.100000,-0.100000)"
fill="#000000" stroke="none">
<path d="M756 1715 c-3 -8 -11 -15 -18 -15 -9 0 -9 3 2 11 12 9 11 10 -5 4
-27 -9 -57 -16 -72 -17 -7 -1 -13 -6 -13 -11 0 -5 -7 -7 -15 -4 -8 4 -17 2
-20 -4 -4 -5 -11 -7 -16 -4 -5 4 -9 1 -9 -4 0 -6 -3 -10 -7 -9 -16 3 -63 -15
-63 -24 0 -5 -4 -6 -10 -3 -5 3 -10 1 -10 -5 0 -6 -4 -8 -10 -5 -5 3 -10 1
-10 -4 0 -6 -9 -11 -20 -11 -11 0 -20 -4 -20 -10 0 -5 -7 -10 -15 -10 -7 0
-19 -8 -24 -17 -6 -10 -11 -14 -11 -9 0 5 -7 3 -15 -4 -8 -7 -12 -16 -9 -21 3
-5 -2 -9 -11 -9 -18 0 -125 -102 -125 -119 0 -6 -4 -11 -8 -11 -5 0 -15 -11
-22 -25 -7 -13 -18 -22 -23 -18 -6 3 -7 1 -4 -4 4 -6 -2 -22 -13 -35 -11 -14
-16 -28 -13 -32 3 -3 0 -6 -7 -6 -7 0 -10 -3 -7 -6 4 -4 -3 -20 -14 -35 -11
-16 -21 -38 -22 -49 -1 -11 -5 -20 -10 -20 -4 0 -6 -4 -2 -9 3 -5 1 -12 -4
-16 -6 -3 -8 -12 -4 -20 3 -8 0 -15 -6 -15 -6 0 -10 -3 -10 -7 4 -26 -2 -73
-9 -69 -5 3 -9 -1 -9 -9 0 -8 5 -11 10 -8 6 4 7 1 2 -8 -5 -7 -10 -23 -11 -34
-3 -33 -6 -139 -4 -150 1 -5 1 -18 0 -29 -1 -13 2 -16 12 -10 10 6 11 5 1 -8
-7 -8 -10 -17 -8 -20 3 -3 8 -23 10 -44 3 -21 11 -42 18 -46 9 -6 8 -8 -3 -8
-12 0 -12 -2 -2 -9 8 -4 13 -12 13 -17 -3 -32 80 -207 111 -235 10 -9 18 -20
18 -25 1 -15 67 -84 81 -84 7 0 9 -3 6 -6 -8 -8 64 -73 81 -74 7 0 11 -4 8 -9
-7 -11 55 -42 68 -34 5 3 6 2 3 -4 -5 -8 43 -39 73 -48 3 -1 18 -7 33 -13 16
-7 33 -9 39 -6 7 4 8 2 4 -4 -6 -11 12 -17 37 -13 4 0 7 -3 7 -7 0 -5 6 -9 13
-9 25 -2 73 -11 92 -18 16 -5 17 -5 5 4 -8 6 -10 11 -5 11 6 0 16 -5 23 -12
16 -16 200 -12 220 5 13 9 14 9 8 0 -8 -15 5 -17 19 -4 6 5 26 12 45 15 45 7
59 10 95 25 17 7 35 14 41 15 7 1 19 7 27 14 12 10 16 10 20 0 4 -8 6 -7 6 4
1 12 6 15 19 11 9 -3 14 -3 10 2 -4 4 13 18 38 31 25 13 57 35 70 49 13 14 24
23 24 19 0 -3 13 8 29 25 16 17 34 31 41 31 6 0 8 4 5 10 -3 5 3 15 15 22 11
7 20 19 20 26 0 7 5 10 10 7 6 -3 10 1 10 9 0 9 5 16 10 16 6 0 10 7 10 15 0
8 5 15 10 15 6 0 10 7 10 15 0 8 4 15 10 15 5 0 9 6 7 13 -1 6 3 11 10 10 7
-2 10 3 7 11 -3 8 0 17 5 21 6 3 9 11 6 16 -4 5 -1 9 4 9 6 0 11 8 11 18 0 10
5 23 12 30 7 7 8 12 3 12 -6 0 -3 4 5 10 8 5 15 21 16 37 2 41 3 45 12 40 4
-3 7 15 7 39 0 24 3 44 8 44 5 0 7 6 4 14 -3 7 0 19 6 26 9 10 9 11 -2 5 -10
-6 -12 -4 -6 5 5 8 8 46 7 85 -1 38 -3 85 -3 102 -1 18 -4 31 -8 29 -3 -2 -7
10 -8 27 -1 18 -4 43 -8 57 -4 14 -7 31 -7 38 -1 6 -6 12 -11 12 -6 0 -7 3 -4
7 4 3 -1 15 -10 26 -10 11 -12 17 -5 13 6 -4 12 -2 12 3 0 6 -4 11 -10 11 -5
0 -10 9 -10 21 0 11 -4 17 -10 14 -6 -3 -10 4 -10 18 0 13 -9 33 -20 45 -11
12 -20 26 -20 32 0 5 -4 10 -10 10 -5 0 -10 4 -10 10 0 9 -19 35 -47 65 -7 8
-13 19 -13 25 0 6 -4 9 -8 6 -5 -3 -16 6 -26 19 -10 14 -22 22 -27 19 -5 -3
-6 1 -3 9 3 8 0 18 -7 23 -8 4 -10 3 -5 -4 10 -16 -2 -15 -19 2 -8 7 -11 16
-8 20 4 3 -1 6 -10 6 -10 0 -17 3 -17 8 0 7 -22 21 -72 44 -16 7 -28 16 -28
20 0 4 -7 8 -15 8 -8 0 -15 5 -15 11 0 5 -4 8 -9 4 -5 -3 -16 2 -24 10 -12 11
-17 12 -20 2 -4 -9 -6 -9 -6 1 -1 6 -10 12 -21 12 -11 0 -20 5 -20 11 0 6 -9
8 -20 4 -12 -4 -20 -2 -20 5 0 7 -7 10 -15 7 -8 -4 -17 -2 -20 2 -3 5 -20 8
-39 7 -19 -1 -32 2 -30 6 3 5 2 8 -3 9 -45 4 -65 3 -69 -3 -3 -5 -10 -5 -16
-2 -9 6 -80 8 -126 5 -7 -1 -10 -7 -7 -13 4 -7 0 -5 -8 5 -13 15 -15 16 -21 2z"/>
</g>
</svg>
